<svg
  width="128"
  height="128"
  viewBox="0 0 128 128"
  fill="none"
  xmlns="http://www.w3.org/2000/svg"
  role="img"
  aria-labelledby="smartDossierMarkTitle smartDossierMarkDesc"
>
  <title id="smartDossierMarkTitle">Smart Dossier Mark</title>
  <desc id="smartDossierMarkDesc">
    Clear digital dossier mark with document and electronic seal.
  </desc>
  <defs>
    <linearGradient
      id="sdMarkBlueIcon"
      x1="24"
      y1="22"
      x2="102"
      y2="104"
      gradientUnits="userSpaceOnUse"
    >
      <stop stop-color="#2F80D8" />
      <stop offset="1" stop-color="#174B92" />
    </linearGradient>
    <linearGradient
      id="sdPaperIcon"
      x1="40"
      y1="30"
      x2="86"
      y2="100"
      gradientUnits="userSpaceOnUse"
    >
      <stop stop-color="#FFFFFF" />
      <stop offset="1" stop-color="#E9F2FF" />
    </linearGradient>
    <linearGradient
      id="sdSealIcon"
      x1="78"
      y1="76"
      x2="108"
      y2="108"
      gradientUnits="userSpaceOnUse"
    >
      <stop stop-color="#F45A6B" />
      <stop offset="1" stop-color="#C91F3B" />
    </linearGradient>
  </defs>

  <rect x="4" y="4" width="120" height="120" rx="28" fill="#0F2F57" />
  <rect x="16" y="16" width="88" height="88" rx="20" fill="url(#sdMarkBlueIcon)" />
  <rect x="36" y="26" width="52" height="70" rx="10" fill="url(#sdPaperIcon)" />
  <path d="M72 26H78C83.5 26 88 30.5 88 36V42L72 26Z" fill="#CFE3FF" />
  <rect x="44" y="46" width="31" height="7" rx="3.5" fill="#1E5AA8" />
  <rect x="44" y="61" width="26" height="7" rx="3.5" fill="#80B8F2" />
  <rect x="78" y="78" width="28" height="28" rx="7" fill="url(#sdSealIcon)" />
  <rect x="84" y="86" width="16" height="5" rx="2.5" fill="#FFFFFF" opacity="0.9" />
  <rect x="84" y="96" width="12" height="5" rx="2.5" fill="#FFFFFF" opacity="0.75" />
  <rect x="4" y="118" width="120" height="5" rx="2.5" fill="#D7193F" />
</svg>
